# xmcd
#
# Track frame offsets:
#	150
#	10377
#	21052
#	40172
#	51672
#	65535
#	78512
#	94442
#	105437
#	117480
#
# Disc length: 1710
#
# Revision: 1
# Processed by: cddbd v1.5.1PL0 Copyright (c) Steve Scherf et al.
# Submitted via: EasyCDDAExtractor 4.6.9.1
# Normalized: r0:TDELIM( - )
#
DISCID=8506ac0a
DTITLE=Various Artist - The King's Country
DYEAR=2000
DGENRE=Country
TTITLE0=Rick Nelson - That's Alright Mama
TTITLE1=Carl Perkins - Blue Suede Shoes
TTITLE2=Billy Swan - Don't Be Cruel
TTITLE3=Johnny Cash - I Forgot To Remember To Forget
TTITLE4=Marty Robbins - Love Me Tender
TTITLE5=Loggins and Messina - My Baby Left Me
TTITLE6=Willie Nelson - Always On My Mind
TTITLE7=Roy Orbison - Mean Woman Blues
TTITLE8=Mac Davis - In The Ghetto
TTITLE9=Tammy Wynette - Crying In The Chapel
EXTD=
EXTT0=
EXTT1=
EXTT2=
EXTT3=
EXTT4=
EXTT5=
EXTT6=
EXTT7=
EXTT8=
EXTT9=
PLAYORDER=
